<svg viewBox="0 0 194 255" fill="none" xmlns="http://www.w3.org/2000/svg">
<rect width="193.003" height="253.233" transform="translate(0.499023 0.882812)" fill="#b0a6a6"/>
<path class="scale-it-more" d="M133.842 41.2628L113.202 31.6028L115.112 20.8828L135.752 30.5428L133.842 41.2628Z" fill="#AFFFB9"/>
<path class="scale-it-more" d="M124.102 26.413C122.462 26.523 121.262 28.613 121.432 31.063C121.602 33.513 123.072 35.403 124.722 35.293C126.372 35.183 127.562 33.093 127.392 30.643C127.222 28.193 125.752 26.313 124.102 26.413Z" fill="#53B700"/>
<path class="scale-it-more" d="M133.822 41.2731L135.722 30.5931L132.242 28.9531C131.792 31.4631 134.322 33.2331 134.322 33.2331L133.562 37.5431C130.952 36.3331 130.172 39.5431 130.172 39.5431L133.822 41.2731Z" fill="#83C441"/>
<path class="scale-it-more" d="M113.222 31.5923L115.122 20.9023L118.622 22.5323C118.142 25.1123 115.412 24.3823 115.412 24.3823L114.652 28.6823C117.262 29.9123 116.852 33.3123 116.852 33.3123L113.222 31.5923Z" fill="#83C441"/>
<path class="scale-it" fill-rule="evenodd" clip-rule="evenodd" d="M155.552 93.8828C155.578 106.374 151.897 118.593 144.976 128.991C138.055 139.39 128.204 147.502 116.671 152.3C105.138 157.098 92.4403 158.367 80.1857 155.946C67.9311 153.524 56.6703 147.522 47.8284 138.698C38.9865 129.875 32.961 118.626 30.5146 106.377C28.0682 94.1272 29.3107 81.4272 34.085 69.8842C38.8594 58.3411 46.9508 48.4738 57.3353 41.5313C67.7197 34.5887 79.9304 30.8829 92.4219 30.8828C109.147 30.8669 125.194 37.4951 137.033 49.3096C148.872 61.1242 155.533 77.1574 155.552 93.8828Z" fill="#D5ECEF"/>
<path class="scale-it-more" fill-rule="evenodd" clip-rule="evenodd" d="M28.702 68.1523C29.9488 70.868 31.4276 73.471 33.122 75.9323C33.522 76.5323 33.942 77.1323 34.372 77.7323L34.522 77.9323V78.0523C34.572 78.1323 34.632 78.1923 34.682 78.2623C34.8284 78.3995 34.9893 78.5203 35.162 78.6223C35.5458 78.836 35.9778 78.9482 36.417 78.9482C36.8563 78.9482 37.2883 78.836 37.672 78.6223L38.602 78.0423L39.152 77.7223C39.3717 77.5892 39.6026 77.4754 39.842 77.3823C40.7961 77.012 41.8313 76.9015 42.842 77.0623C43.8282 77.2284 44.7587 77.6335 45.552 78.2423C45.9463 78.5294 46.3025 78.8654 46.612 79.2423L47.272 80.1123C49.082 82.3923 50.922 84.6623 52.942 86.7723L49.942 89.1023C48.402 86.6123 46.642 84.2723 44.942 81.9423L44.282 81.1323C44.1446 80.9331 43.9757 80.7575 43.782 80.6123C43.4188 80.3229 42.9755 80.1519 42.512 80.1223C42.0604 80.0792 41.6053 80.1551 41.192 80.3423C41.0976 80.3917 41.0074 80.4486 40.922 80.5123L40.782 80.6023L40.552 80.7723L39.682 81.4223C38.8524 82.0241 37.8873 82.4122 36.872 82.5523C35.8637 82.6873 34.8379 82.5915 33.872 82.2723C33.3646 82.1003 32.8808 81.8651 32.432 81.5723C32.1962 81.4305 31.9722 81.27 31.762 81.0923L31.232 80.6023C30.692 80.1123 30.152 79.6023 29.582 79.1423C27.3243 77.1739 24.8984 75.4071 22.332 73.8623L28.702 68.1523Z" fill="#5BEF76"/>
<path class="scale-it-more" fill-rule="evenodd" clip-rule="evenodd" d="M110.792 130.353C110.743 130.047 110.786 129.732 110.915 129.45C111.044 129.168 111.254 128.93 111.518 128.767C111.783 128.604 112.089 128.523 112.4 128.534C112.71 128.546 113.01 128.649 113.262 128.83C113.513 129.012 113.706 129.265 113.814 129.556C113.922 129.847 113.942 130.163 113.87 130.465C113.798 130.768 113.639 131.042 113.411 131.253C113.184 131.464 112.899 131.604 112.592 131.653C112.182 131.717 111.763 131.616 111.426 131.373C111.089 131.129 110.861 130.763 110.792 130.353Z" fill="#00892E"/>
<path class="scale-it-more" fill-rule="evenodd" clip-rule="evenodd" d="M124.972 122.693C124.909 122.28 125.011 121.86 125.257 121.523C125.502 121.185 125.871 120.959 126.282 120.893C126.589 120.845 126.903 120.889 127.184 121.02C127.465 121.151 127.702 121.362 127.863 121.627C128.025 121.891 128.104 122.198 128.091 122.508C128.079 122.818 127.975 123.117 127.792 123.368C127.61 123.619 127.357 123.81 127.066 123.917C126.775 124.024 126.459 124.043 126.157 123.971C125.855 123.899 125.582 123.739 125.371 123.511C125.16 123.284 125.022 122.999 124.972 122.693Z" fill="#7FFA94"/>
<path class="scale-it-more" fill-rule="evenodd" clip-rule="evenodd" d="M147.792 152.573C144.99 151.542 142.102 150.763 139.162 150.243C138.442 150.093 137.722 149.973 137.002 149.853L136.292 149.743C136.02 149.689 135.753 149.616 135.492 149.523C134.986 149.349 134.502 149.114 134.052 148.823C133.184 148.26 132.458 147.503 131.932 146.613C131.409 145.729 131.113 144.729 131.072 143.703V142.613V142.173C131.072 142.063 131.072 141.963 131.072 141.853C130.963 141.412 130.739 141.008 130.422 140.683C130.109 140.342 129.702 140.102 129.252 139.993C129.017 139.935 128.774 139.911 128.532 139.923H127.482C124.592 140.013 121.652 140.093 118.752 140.433L118.702 136.633C121.612 136.893 124.532 136.923 127.442 136.933H128.542C129.035 136.928 129.526 136.988 130.002 137.113C130.973 137.354 131.87 137.831 132.612 138.503C133.354 139.19 133.906 140.059 134.212 141.023C134.286 141.272 134.339 141.526 134.372 141.783L134.462 142.413L134.592 143.493C134.656 143.932 134.832 144.346 135.104 144.697C135.376 145.047 135.733 145.321 136.142 145.493C136.328 145.565 136.523 145.612 136.722 145.633H136.982L137.092 145.583H137.352C138.082 145.583 138.822 145.503 139.542 145.443C142.52 145.244 145.475 144.782 148.372 144.063L147.792 152.573Z" fill="#00892E"/>
<path class="scale-it-more" fill-rule="evenodd" clip-rule="evenodd" d="M133.962 106.833L136.792 82.293C136.807 82.0987 136.883 81.9141 137.008 81.7652C137.134 81.6163 137.303 81.5106 137.492 81.463L152.332 77.833C152.41 77.8088 152.494 77.8025 152.575 77.8146C152.656 77.8267 152.734 77.8569 152.802 77.903L156.712 80.903C156.776 80.9541 156.826 81.0199 156.859 81.0948C156.892 81.1696 156.907 81.2513 156.902 81.333L154.192 101.863C154.177 102.057 154.101 102.242 153.976 102.391C153.85 102.54 153.681 102.645 153.492 102.693L134.642 107.323C134.565 107.348 134.483 107.354 134.403 107.339C134.323 107.325 134.248 107.291 134.185 107.24C134.121 107.19 134.071 107.124 134.039 107.05C134.007 106.975 133.995 106.894 134.002 106.813L133.962 106.833Z" fill="#F4F5F8"/>
<path class="scale-it-more" fill-rule="evenodd" clip-rule="evenodd" d="M142.332 85.0926C142.304 85.595 142.122 86.0767 141.811 86.4721C141.499 86.8676 141.074 87.1575 140.592 87.3026C140.389 87.3646 140.173 87.3747 139.965 87.3318C139.757 87.2889 139.563 87.1945 139.401 87.0572C139.238 86.9199 139.113 86.744 139.037 86.5458C138.96 86.3476 138.934 86.1333 138.962 85.9226C138.991 85.4205 139.174 84.9395 139.485 84.5443C139.796 84.1492 140.221 83.8589 140.702 83.7126C140.905 83.6505 141.121 83.6405 141.329 83.6833C141.537 83.7262 141.731 83.8206 141.893 83.958C142.056 84.0953 142.181 84.2711 142.257 84.4693C142.334 84.6676 142.36 84.8819 142.332 85.0926Z" fill="#56B447"/>
<path class="scale-it-more" fill-rule="evenodd" clip-rule="evenodd" d="M144.822 96.3129C144.84 96.0593 144.934 95.8172 145.093 95.6189C145.252 95.4206 145.468 95.2755 145.712 95.2029L151.242 93.8529C151.343 93.8178 151.452 93.8093 151.558 93.8282C151.664 93.8471 151.763 93.8928 151.847 93.961C151.93 94.0292 151.994 94.1176 152.034 94.2177C152.073 94.3178 152.086 94.4263 152.072 94.5329C152.057 94.786 151.965 95.0286 151.808 95.2273C151.65 95.426 151.435 95.5711 151.192 95.6429L145.652 97.0029C145.549 97.033 145.441 97.0374 145.337 97.0159C145.232 96.9943 145.135 96.9473 145.053 96.8791C144.971 96.8109 144.907 96.7236 144.867 96.6249C144.826 96.5261 144.811 96.419 144.822 96.3129Z" fill="#20BBBB"/>
<path class="scale-it-more" fill-rule="evenodd" clip-rule="evenodd" d="M151.802 88.1228L139.912 91.0328C139.605 91.1173 139.327 91.2855 139.11 91.5185C138.893 91.7516 138.745 92.0404 138.682 92.3528L138.512 93.3528C138.471 93.5084 138.473 93.6721 138.517 93.8269C138.561 93.9817 138.645 94.1218 138.762 94.2328C138.883 94.3389 139.029 94.4121 139.187 94.4454C139.345 94.4786 139.508 94.4709 139.662 94.4228L151.592 91.4928C151.9 91.4093 152.178 91.2414 152.395 91.0082C152.612 90.7749 152.76 90.4856 152.822 90.1728L153.002 89.1728C153.039 89.0146 153.035 88.8495 152.989 88.6935C152.944 88.5375 152.858 88.396 152.742 88.2828C152.611 88.1799 152.456 88.1115 152.292 88.0835C152.128 88.0556 151.959 88.0691 151.802 88.1228Z" fill="#80C241"/>
<g opacity="0.5">
<path class="scale-it-more" fill-rule="evenodd" clip-rule="evenodd" d="M120.942 97.0226C121.007 96.7611 121.15 96.5254 121.352 96.3468C121.553 96.1683 121.805 96.0552 122.072 96.0226L129.072 95.4426C129.186 95.4398 129.298 95.4651 129.4 95.5163C129.501 95.5674 129.589 95.6429 129.654 95.7359C129.719 95.8289 129.76 95.9366 129.774 96.0494C129.788 96.1622 129.773 96.2767 129.732 96.3826C129.67 96.6454 129.528 96.8826 129.326 97.0616C129.123 97.2406 128.871 97.3528 128.602 97.3826L121.602 97.9626C121.102 97.9826 120.812 97.5626 120.942 97.0226Z" fill="#00892E"/>
</g>
<g opacity="0.5">
<path class="scale-it-more" fill-rule="evenodd" clip-rule="evenodd" d="M119.022 105.973C119.013 105.706 119.088 105.443 119.237 105.222C119.386 105.001 119.602 104.833 119.852 104.743L129.072 101.053C129.174 101.006 129.285 100.984 129.396 100.989C129.508 100.993 129.617 101.024 129.714 101.079C129.812 101.133 129.895 101.21 129.957 101.303C130.019 101.396 130.059 101.502 130.072 101.613C130.081 101.88 130.006 102.144 129.857 102.366C129.708 102.588 129.493 102.759 129.242 102.853L120.022 106.543C119.92 106.589 119.808 106.611 119.696 106.606C119.584 106.6 119.474 106.569 119.377 106.513C119.279 106.458 119.196 106.38 119.134 106.286C119.073 106.192 119.034 106.084 119.022 105.973Z" fill="#00892E"/>
</g>
<path class="scale-it-more" fill-rule="evenodd" clip-rule="evenodd" d="M38.7924 113.553C38.7355 113.198 38.7853 112.833 38.9356 112.506C39.086 112.178 39.33 111.903 39.6369 111.715C39.9438 111.526 40.2998 111.433 40.6597 111.447C41.0196 111.461 41.3673 111.581 41.6587 111.792C41.9502 112.004 42.1723 112.297 42.297 112.635C42.4217 112.973 42.4433 113.341 42.3591 113.691C42.2749 114.041 42.0887 114.358 41.8241 114.603C41.5594 114.847 41.2282 115.007 40.8724 115.063C40.3969 115.135 39.912 115.017 39.5227 114.735C39.1335 114.452 38.8711 114.028 38.7924 113.553Z" fill="#7FFA94"/>
<path class="scale-it-more" d="M136.842 130.833C136.695 130.709 136.594 130.541 136.554 130.353C136.514 130.166 136.538 129.97 136.622 129.798C136.706 129.626 136.845 129.486 137.017 129.402C137.189 129.318 137.384 129.293 137.572 129.333L154.712 131.533C154.937 131.575 155.137 131.705 155.266 131.895C155.395 132.084 155.444 132.317 155.402 132.543C155.359 132.768 155.229 132.968 155.04 133.097C154.85 133.226 154.617 133.275 154.392 133.233L137.252 131.033C137.099 131.006 136.957 130.936 136.842 130.833Z" fill="#5BEF76"/>
<path class="scale-it-more" d="M142.602 123.323C142.438 123.233 142.307 123.092 142.229 122.922C142.151 122.752 142.13 122.561 142.17 122.378C142.209 122.194 142.306 122.029 142.447 121.906C142.588 121.782 142.765 121.708 142.952 121.693L160.122 119.693C160.236 119.686 160.35 119.702 160.457 119.74C160.565 119.778 160.664 119.836 160.748 119.913C160.833 119.989 160.902 120.081 160.95 120.184C160.999 120.287 161.027 120.399 161.032 120.513C161.043 120.74 160.964 120.963 160.813 121.133C160.661 121.304 160.449 121.407 160.222 121.423L143.052 123.423C142.896 123.425 142.742 123.391 142.602 123.323Z" fill="#5BEF76"/>
<path class="scale-it-more" d="M23.5225 90.0224C23.4189 89.9139 23.3459 89.7801 23.3108 89.6343C23.2756 89.4885 23.2797 89.336 23.3225 89.1923C23.3536 89.0831 23.406 88.981 23.4767 88.8921C23.5474 88.8032 23.635 88.7291 23.7345 88.6743C23.834 88.6194 23.9434 88.5848 24.0563 88.5725C24.1693 88.5601 24.2835 88.5703 24.3925 88.6024L41.2525 92.4123C41.4725 92.4795 41.6574 92.6302 41.7677 92.8321C41.878 93.0339 41.9048 93.2709 41.8425 93.4924C41.8104 93.6007 41.7573 93.7017 41.6861 93.7896C41.6149 93.8774 41.5272 93.9503 41.4278 94.0042C41.3284 94.058 41.2194 94.0918 41.1069 94.1035C40.9945 94.1152 40.8809 94.1046 40.7725 94.0724L23.9125 90.2623C23.7614 90.2232 23.6256 90.1396 23.5225 90.0224Z" fill="#7FFA94"/>
<path class="scale-it-more" d="M21.0821 106.633C20.9389 106.587 20.8107 106.503 20.7105 106.39C20.6104 106.278 20.5419 106.141 20.5121 105.993C20.4734 105.772 20.5214 105.545 20.6463 105.359C20.7711 105.172 20.9631 105.041 21.1821 104.993L37.8721 100.483C38.0903 100.454 38.3114 100.509 38.4908 100.636C38.6702 100.764 38.7947 100.955 38.8391 101.17C38.8834 101.386 38.8445 101.61 38.73 101.798C38.6155 101.986 38.434 102.124 38.2221 102.183L21.5321 106.683C21.3803 106.708 21.2248 106.69 21.0821 106.633Z" fill="#7FFA94"/>
<path class="scale-it-more" d="M51.752 104.413C52.5363 104.413 53.172 103.777 53.172 102.993C53.172 102.209 52.5363 101.573 51.752 101.573C50.9678 101.573 50.332 102.209 50.332 102.993C50.332 103.777 50.9678 104.413 51.752 104.413Z" fill="#00892E"/>
<path class="scale-it-more" d="M25.4124 125.113L51.3324 117.003L48.6524 128.243L22.7324 136.353L25.4124 125.113Z" fill="#AFFFB9"/>
<path class="scale-it-more" d="M37.3826 130.573C39.4726 129.123 41.0426 126.273 40.8826 124.193C40.7226 122.113 38.8826 121.613 36.8226 123.053C34.7626 124.493 33.1626 127.353 33.3226 129.433C33.4826 131.513 35.3326 132.013 37.3826 130.573Z" fill="#53B700"/>
<path class="scale-it-more" d="M25.4325 125.093L22.7725 136.283L27.1425 134.923C27.7725 132.283 24.6025 132.753 24.6025 132.753L25.6825 128.243C28.9525 127.243 30.0125 123.663 30.0125 123.663L25.4325 125.093Z" fill="#83C441"/>
<path class="scale-it-more" d="M51.3322 117.033L48.6622 128.233L44.2822 129.603C44.9522 126.893 48.3822 125.333 48.3822 125.333L49.4522 120.823C46.1822 121.823 46.7722 118.443 46.7722 118.443L51.3322 117.033Z" fill="#83C441"/>
<g id="dance-dance">
<path d="M109.832 116.913C116.402 125.303 86.0718 135.153 74.5518 126.273C74.5518 126.273 101.192 105.873 109.832 116.913Z" fill="#ADBAC2"/>
<g opacity="0.3">
<path opacity="0.3" fill-rule="evenodd" clip-rule="evenodd" d="M156.872 81.0024L152.692 77.7324H152.602L152.482 81.4624C152.474 81.5382 152.486 81.6147 152.515 81.6848C152.545 81.7549 152.592 81.8163 152.652 81.8633C152.712 81.9102 152.783 81.9412 152.858 81.9533C152.933 81.9654 153.01 81.9582 153.082 81.9324L156.872 81.0024Z" fill="#20BBBB"/>
</g>
<path d="M138.102 48.4131C130.522 47.6131 129.702 70.4131 134.662 72.5031C137.012 73.4131 142.642 48.8431 138.102 48.4131Z" fill="#ADBAC2"/>
<path d="M92.5521 196.713C96.2721 199.833 96.8421 204.193 99.7521 205.833C102.212 207.213 107.072 209.553 107.752 212.433C108.122 213.903 104.492 216.153 100.752 220.713C98.4121 223.563 97.3621 227.813 96.4321 228.813C92.1121 233.493 81.9221 232.593 83.3821 230.343C87.0121 223.833 92.8921 221.433 93.0121 215.553C93.1321 209.673 89.2321 207.553 84.7321 203.793C80.2321 200.033 88.8321 193.593 92.5521 196.713Z" fill="#F9DCB2"/>
<path d="M49.3323 38.6328C53.0623 40.1728 61.3323 52.5528 62.6923 55.0428C64.0523 57.5328 58.6923 61.9928 56.6423 61.3228C54.5923 60.6528 47.5223 42.1228 46.7823 40.9628C46.0423 39.8028 49.3323 38.6328 49.3323 38.6328Z" fill="#F9DCB2"/>
<path d="M106.192 165.463C110.132 165.633 113.832 166.323 115.192 166.173C117.322 165.943 119.412 164.343 121.912 171.993C123.492 176.803 129.122 179.993 132.102 185.153C132.472 185.793 129.862 187.483 129.102 187.353C123.692 186.353 117.102 178.233 114.822 175.713C113.822 174.603 109.002 174.453 105.222 173.193C101.442 171.933 102.262 165.293 106.192 165.463Z" fill="#F9DCB2"/>
<path d="M65.0616 102.412C60.2216 116.822 63.1516 124.902 62.2616 128.222C61.3716 131.542 44.7116 155.082 49.7916 175.512C53.0616 188.662 71.2516 192.082 90.6916 209.722C93.7516 207.722 96.9216 205.312 97.5316 202.722C88.1716 175.902 67.9616 169.252 68.7716 164.272C69.5816 159.292 77.9416 147.272 82.3816 131.832C86.8216 116.392 77.9916 103.472 77.9916 103.472C77.9916 103.472 68.0816 99.9425 65.0616 102.412Z" fill="#8D005D"/>
<path d="M68.7216 110.553C68.9616 124.263 73.7217 130.393 73.3117 132.783C72.9017 135.173 56.6617 161.463 63.6317 175.053C69.3417 186.183 83.4916 174.903 111.392 175.173C113.552 174.563 111.472 167.243 110.772 166.003C100.592 157.353 86.4816 161.073 85.4716 159.693C84.4616 158.313 94.0016 145.073 97.6516 136.233C102.882 123.533 89.9316 113.953 89.9316 113.953C89.9316 113.953 69.5316 108.913 68.7216 110.553Z" fill="#B30078"/>
<path d="M80.3325 78.1127C75.8025 69.5927 71.1325 60.9027 59.6225 49.8727C58.1825 49.4127 53.3825 56.2227 52.1025 62.7427C60.8925 80.3527 66.7025 91.6627 70.8325 91.5627C74.9625 91.4627 84.2425 85.4127 80.3325 78.1127Z" fill="white"/>
<path d="M58.8017 120.843C79.8617 138.843 106.362 107.733 111.972 119.843C101.192 99.1925 108.542 80.2425 102.182 73.1825C95.6817 65.9525 74.8117 74.7625 69.2717 79.5125C63.7317 84.2625 58.5817 106.893 58.8017 120.843Z" fill="white"/>
<path d="M51.7723 40.4133C52.3523 41.9533 48.2023 42.7833 46.1123 41.2933C44.0223 39.8033 43.1123 36.0133 41.1123 35.1233C41.7023 33.8533 43.5523 34.2333 45.9023 36.1233C46.9023 35.3033 46.5123 30.6933 46.6623 29.2633C46.8536 28.2998 47.3996 27.4433 48.1923 26.8633C49.2768 28.2153 50.2122 29.6805 50.9823 31.2333C52.5523 34.8033 50.8623 38.0633 51.7723 40.4133Z" fill="#F9DCB2"/>
<path d="M157.792 38.7725C152.032 38.8825 135.622 49.5425 132.502 52.1525C129.382 54.7625 126.252 67.2825 129.402 67.4925C132.552 67.7025 157.922 43.8025 159.502 42.6425C161.082 41.4825 157.792 38.7725 157.792 38.7725Z" fill="#F9DCB2"/>
<path d="M102.012 72.9823C114.712 55.8523 133.912 48.9823 138.152 47.1523C130.822 58.7923 132.872 71.1523 134.662 72.4523C120.262 80.4523 110.352 93.6423 104.572 94.9623C98.7919 96.2823 94.4319 79.2123 102.012 72.9823Z" fill="white"/>
<path d="M155.622 39.2929C155.072 37.2329 158.672 29.9129 158.222 28.2129C162.752 28.5929 159.222 32.7929 160.852 33.9329C162.482 35.0729 164.912 36.5129 167.602 35.9329C169.712 38.7029 173.342 38.6429 173.492 39.4829C173.762 40.9029 168.332 44.4829 163.712 43.9829C159.092 43.4829 156.172 41.4129 155.622 39.2929Z" fill="#F9DCB2"/>
<path d="M91.3577 59.9729C92.3419 57.4304 91.1161 54.586 88.6199 53.6197C86.1237 52.6535 83.3023 53.9312 82.3181 56.4737C81.334 59.0161 82.5597 61.8605 85.0559 62.8267C87.5521 63.793 90.3736 62.5153 91.3577 59.9729Z" fill="#EDA700"/>
<path d="M89.4123 58.4131L85.0823 71.5131L81.1523 73.5131C96.4723 77.4031 98.4023 72.0431 96.0123 71.6531C96.7523 69.5831 100.362 58.7931 100.362 58.7931L89.4123 58.4131Z" fill="#F9DCB2"/>
<path d="M112.655 53.2222C113.692 48.1014 110.705 43.1758 105.985 42.2206C101.265 41.2654 96.5981 44.6423 95.5619 49.7631C94.5256 54.8839 97.5121 59.8095 102.232 60.7647C106.953 61.7199 111.619 58.343 112.655 53.2222Z" fill="#EDA700"/>
<path d="M105.816 60.8231C106.339 58.2357 104.828 55.7465 102.441 55.2634C100.054 54.7803 97.6943 56.4863 97.1707 59.0738C96.6471 61.6612 98.1579 64.1504 100.545 64.6335C102.932 65.1166 105.292 63.4106 105.816 60.8231Z" fill="#EDA700"/>
<path d="M94.7302 50.6727C95.784 45.4653 92.7459 40.4562 87.9444 39.4845C83.143 38.5129 78.3964 41.9467 77.3426 47.1541C76.2888 52.3616 79.3269 57.3707 84.1283 58.3423C88.9298 59.3139 93.6764 55.8801 94.7302 50.6727Z" fill="#EDA700"/>
<path d="M96.6525 69.8431C97.3125 67.9631 98.9425 62.9731 99.9125 60.1131L93.8325 58.5331L91.1025 58.4131C90.4525 65.9131 91.9425 69.4131 96.6525 69.8431Z" fill="#F5CC91"/>
<path d="M104.172 57.0531C103.657 60.127 102.171 62.9551 99.932 65.1231C98.412 66.5431 97.282 67.5431 95.552 67.5831C93.822 67.6231 92.122 65.2931 91.132 63.8631C88.332 59.8631 89.282 54.4431 90.542 50.0331C91.242 47.5731 95.282 46.5531 97.772 46.8331C102.892 47.4131 105.032 51.5831 104.172 57.0531Z" fill="#F9DCB2"/>
<path d="M89.7824 58.7133C91.3288 58.7133 92.5824 57.4597 92.5824 55.9133C92.5824 54.3669 91.3288 53.1133 89.7824 53.1133C88.236 53.1133 86.9824 54.3669 86.9824 55.9133C86.9824 57.4597 88.236 58.7133 89.7824 58.7133Z" fill="#F9DCB2"/>
<path d="M125.332 185.702C132.022 184.582 123.692 176.352 121.442 174.872C119.192 173.392 118.902 168.742 114.042 166.162C114.042 166.162 118.402 165.092 120.042 165.292C121.682 165.492 124.772 168.872 124.042 171.382C128.042 177.152 134.562 174.872 135.762 188.912C136.062 192.502 125.332 185.702 125.332 185.702Z" fill="#00D0E0"/>
<path d="M106.318 44.4179C107.266 39.7301 104.529 35.2204 100.204 34.3452C95.879 33.4699 91.6038 36.5606 90.6551 41.2484C89.7065 45.9361 92.4437 50.4458 96.7688 51.3211C101.094 52.1963 105.369 49.1056 106.318 44.4179Z" fill="#EDA700"/>
<path d="M103.332 46.4829C103.532 46.9606 103.598 47.4835 103.524 47.996C103.45 48.5085 103.239 48.9913 102.912 49.3929C102.871 49.4746 102.817 49.5489 102.752 49.6129C102.663 49.7201 102.566 49.8204 102.462 49.9129L102.292 50.0629C102.222 50.1229 102.372 50.0629 102.232 50.0629C102.123 50.137 102.009 50.2038 101.892 50.2629C101.712 50.3429 101.822 50.2629 101.892 50.2629L101.682 50.3329C101.602 50.3329 101.282 50.3329 101.482 50.3329H101.052C101.272 50.3329 100.872 50.2729 100.802 50.2529V52.1929H101.002C100.932 52.1929 100.772 52.1929 100.932 52.1929C101.092 52.1929 100.832 52.1929 100.752 52.1129C100.683 52.0608 100.626 51.9946 100.585 51.9187C100.543 51.8429 100.518 51.7591 100.512 51.6729C100.522 51.7089 100.522 51.747 100.512 51.7829C100.512 51.9529 100.592 51.5329 100.512 51.6929C100.484 51.7749 100.46 51.8584 100.442 51.9429C100.332 52.1329 100.442 52.0429 100.442 51.9429C100.426 51.9881 100.406 52.0316 100.382 52.0729L100.222 52.3529C100.082 52.5629 100.332 52.2529 100.162 52.4329L99.9218 52.6729C99.8118 52.7829 99.9218 52.6729 99.9218 52.6729L99.7818 52.7629C99.7355 52.7802 99.6917 52.8038 99.6518 52.8329C99.6018 52.9029 99.8818 52.7729 99.7218 52.8329H99.5618C99.4018 52.8929 99.7718 52.8329 99.6518 52.8329H99.5218C99.8618 52.8329 99.6518 52.8329 99.5818 52.8329C99.5118 52.8329 99.7618 52.9129 99.6418 52.8329L99.5018 52.7529C99.5918 52.8429 99.6818 52.8229 99.5018 52.7529L99.3518 52.5829L98.0818 54.2229L98.2918 54.3229C98.2018 54.2529 98.1818 54.2429 98.2418 54.3229C98.3018 54.4029 98.4118 54.4929 98.5018 54.5629L98.3418 53.2929C98.2934 53.3866 98.2292 53.4712 98.1518 53.5429C98.1518 53.5429 98.2218 53.4629 98.1518 53.5429C98.3045 53.5326 98.4471 53.4633 98.5497 53.3497C98.6522 53.2362 98.7067 53.0872 98.7015 52.9343C98.6963 52.7814 98.6319 52.6364 98.5219 52.5301C98.4119 52.4237 98.2648 52.3643 98.1118 52.3643C97.9588 52.3643 97.8118 52.4237 97.7018 52.5301C97.5917 52.6364 97.5273 52.7814 97.5222 52.9343C97.517 53.0872 97.5714 53.2362 97.6739 53.3497C97.7765 53.4633 97.9192 53.5326 98.0718 53.5429C97.8405 53.637 97.5868 53.6613 97.3418 53.6129C96.6718 53.5229 96.4218 54.4629 96.8218 54.8829C97.0579 55.1246 97.3494 55.3051 97.6709 55.4088C97.9924 55.5126 98.3344 55.5364 98.6672 55.4783C99.0001 55.4202 99.3137 55.2819 99.5811 55.0754C99.8485 54.8689 100.062 54.6003 100.202 54.2929C100.333 54.0495 100.367 53.7653 100.296 53.4979C100.226 53.2305 100.056 53 99.8218 52.8529C99.8218 52.8529 99.8918 52.9029 99.8218 52.8529L99.5918 52.6529C99.3961 52.5176 99.1845 52.4068 98.9618 52.3229C98.7383 52.2619 98.5009 52.2757 98.2859 52.3624C98.071 52.4491 97.8904 52.6038 97.7718 52.8029C97.6624 53.0055 97.62 53.2374 97.6505 53.4656C97.681 53.6937 97.783 53.9063 97.9418 54.0729C98.2242 54.4191 98.6032 54.6734 99.0306 54.8034C99.4581 54.9334 99.9145 54.9333 100.342 54.8029C101.075 54.5234 101.687 53.9963 102.072 53.3129C102.264 53.0211 102.396 52.6941 102.462 52.3509C102.527 52.0076 102.523 51.6549 102.452 51.3129C102.373 51.1028 102.252 50.9109 102.097 50.7489C101.941 50.5868 101.755 50.458 101.548 50.3701C101.341 50.2822 101.119 50.2372 100.895 50.2377C100.67 50.2381 100.448 50.2842 100.242 50.3729C100.026 50.4271 99.8337 50.552 99.6965 50.7278C99.5594 50.9035 99.4849 51.12 99.4849 51.3429C99.4849 51.5658 99.5594 51.7824 99.6965 51.9581C99.8337 52.1339 100.026 52.2587 100.242 52.3129C101.073 52.5066 101.946 52.4146 102.719 52.0518C103.492 51.6889 104.12 51.0764 104.502 50.3129C104.907 49.5959 105.088 48.7739 105.022 47.9529C104.991 47.5539 104.87 47.167 104.67 46.8209C104.469 46.4747 104.193 46.1781 103.862 45.9529C103.532 45.7329 103.212 46.1629 103.362 46.4629L103.332 46.4829Z" fill="#AC6500"/>
<path d="M97.662 45.2218C98.5734 40.7181 95.9465 36.386 91.7946 35.5459C87.6427 34.7057 83.5381 37.6756 82.6268 42.1793C81.7154 46.683 84.3423 51.0151 88.4942 51.8553C92.646 52.6954 96.7506 49.7256 97.662 45.2218Z" fill="#EDA700"/>
<path d="M86.7321 225.753C86.4021 226.633 85.7321 227.043 85.9221 227.553C86.8021 229.763 92.5421 229.063 94.2921 227.553C96.4521 225.693 107.882 210.813 102.122 207.213C107.702 210.003 108.122 212.433 108.122 212.793C108.122 214.113 107.222 219.543 104.042 219.633C100.292 223.053 97.8021 230.193 94.4421 232.113C91.0821 234.033 82.2921 234.903 81.9321 233.223C81.5721 231.543 86.7321 225.753 86.7321 225.753Z" fill="#00D0E0"/>
</g>
</svg>
