<svg xmlns="http://www.w3.org/2000/svg" viewBox="0 0 172 176" fill="none">
  <g id="backdrop-circle" > 
    <path d="M85.1333 100.39C112.876 100.39 135.366 77.9168 135.366 50.1949C135.366 22.473 112.876 0 85.1333 0C57.3905 0 34.9006 22.473 34.9006 50.1949C34.9006 77.9168 57.3905 100.39 85.1333 100.39Z" fill="#D5ECEF"/>
  </g>
  <g id="right-image">  
    <path d="M98.9037 176H170.842C171.481 176 172 175.482 172 174.843V173.954C172 173.315 171.481 172.797 170.842 172.797H98.9037C98.2641 172.797 97.7456 173.315 97.7456 173.954V174.843C97.7456 175.482 98.2641 176 98.9037 176Z" fill="#53B700"/>
    <path d="M22.1388 176H100.779C101.753 176 102.542 175.211 102.542 174.238V169.363C102.542 168.389 101.753 167.601 100.779 167.601H22.1388C21.165 167.601 20.3755 168.389 20.3755 169.363V174.238C20.3755 175.211 21.165 176 22.1388 176Z" fill="#53B700"/>
    <path d="M116.731 86.0777C116.731 85.8686 116.873 85.7342 117.075 85.7342C117.277 85.7342 117.419 85.8761 117.419 86.0777C117.419 86.2793 117.277 86.4211 117.075 86.4211C116.873 86.4211 116.731 86.2793 116.731 86.0777ZM113.892 86.1449C113.892 84.9727 114.931 84.0693 116.104 84.0693H116.313C115.207 84.1365 114.303 85.0399 114.303 86.1449C114.303 87.2499 115.065 88.0786 116.171 88.2205H115.962C114.789 88.1533 113.817 87.2499 113.885 86.1449H113.892Z" fill="#48BCC3"/>
    <path class="right-arm" d="M91.686 47.7017C95.5639 52.5397 99.5762 59.4534 101.721 59.1099C103.798 58.7665 110.926 45.2154 112.719 43.4161C114.52 41.6167 118.188 51.0913 116.799 57.0343C115.416 62.9774 108.356 73.1463 101.16 74.0422C93.9649 74.9382 88.1519 51.7782 88.0099 49.2919C87.8007 46.8057 90.9837 46.8057 91.6785 47.7017H91.686Z" fill="#00856D"/>
    <path id="right-leg" d="M132.437 79.3731C126.213 97.695 124.203 116.846 123.508 136.28C123.366 140.155 123.366 148.383 123.441 152.25C123.508 154.878 113.616 156.192 113.197 154.184V154.042C112.644 151.003 112.226 143.53 111.815 140.424C109.394 120.579 110.918 100.599 114.654 81.0306C114.721 80.5453 115.551 75.4309 115.76 75.4309L115.902 74.7366C116.941 70.1076 121.506 67.2032 126.146 68.1664C130.778 69.2042 133.685 73.766 132.721 78.4025C132.654 78.7459 132.579 79.0968 132.444 79.3731H132.437Z" fill="#006A56"/>
    <path id="left-leg" d="M141.433 81.9265C141.642 83.3749 141.709 84.898 141.851 86.2793C142.337 90.7739 142.546 95.2013 142.681 99.6959C142.89 104.81 143.166 109.932 143.929 114.979C145.662 126.387 146.693 137.519 148.845 148.861L149.607 151.974C150.093 154.393 147.874 156.887 145.453 157.364C143.241 157.783 140.335 153.49 139.64 151.421C135.971 140.289 132.303 129.09 129.12 117.816C125.795 106.132 122.821 94.1038 121.857 81.934C121.439 76.954 125.182 72.6013 130.158 72.2578C133.341 71.9816 136.591 73.3628 138.736 75.6475C140.469 77.3049 141.089 79.5896 141.433 81.9414V81.9265Z" fill="#00A286"/>
    <path d="M114.034 83.5914C114.034 83.5914 120.056 90.0945 141.642 85.667C141.986 85.5998 140.051 79.2387 139.983 77.9246C139.565 64.6498 145.916 52.48 143.712 43.8491C141.508 35.2183 123.307 34.0162 112.652 43.2817C109.26 54.0703 114.034 73.9825 114.176 76.4015C114.452 80.4109 114.318 79.7912 114.034 83.5914Z" fill="#00A286"/>
    <path d="M112.248 101.428C115.708 102.122 115.379 94.3278 120.198 89.43C123.889 85.682 136.263 79.6269 141.508 80.1346L140.663 76.6703C140.663 76.6703 129.247 77.514 111.994 84.8682L112.248 101.428Z" fill="#834B1F"/>
    <path d="M109.842 91.1099C109.842 91.1099 108.497 86.3689 105.905 83.1435C105.546 82.6955 105.725 82.1579 106.174 81.7996H106.263C106.622 81.5308 107.16 81.6204 107.429 81.9788C108.505 83.2331 110.739 86.2718 111.277 90.2139L109.842 91.1099Z" fill="#B70000"/>
    <path d="M110.657 90.3035C110.657 90.3035 110.477 85.3833 108.774 81.6204C108.595 81.1724 108.774 80.5452 109.312 80.4557H109.402C109.85 80.2765 110.298 80.5452 110.477 80.9036C111.195 82.3371 112.898 86.003 112.45 89.8555L110.657 90.3035Z" fill="#D42B1E"/>
    <path d="M116.664 88.2876C114.452 88.8401 110.784 89.6689 106.981 90.296C106.981 90.296 108.019 99.9722 110.926 106.199L111.411 106.266C113.003 106.475 114.452 105.228 114.452 103.638C114.52 100.525 115.147 92.506 117.426 89.3926C117.703 88.8401 117.217 88.1458 116.664 88.2876Z" fill="#AF7242"/>
    <path d="M120.953 32.8365C120.953 32.8365 121.648 42.7964 122.201 43.9686C122.754 45.2154 128.223 45.9023 130.711 41.893L128.843 30.1413L120.953 32.8365Z" fill="#F0BB95"/>
    <path d="M121.85 43.7595C119.496 52.4053 123.023 64.6423 123.023 64.6423C123.023 64.6423 125.929 51.5766 129.598 41.9677C129.665 41.9005 124.756 46.8804 121.85 43.767V43.7595Z" fill="#2B3135"/>
    <path d="M129.672 34.7031L132.235 36.7115C133.618 39.0633 132.377 43.0054 130.987 45.4245L127.386 43.0054C127.319 42.9383 130.016 38.5108 129.672 34.7106V34.7031Z" fill="#00856D"/>
    <path d="M141.224 158.746C141.224 161.307 140.738 162.822 139.012 164.554C137.421 166.077 132.504 168.706 134.238 171.401C136.038 174.163 141.986 173.887 144.683 172.991C146.207 172.506 146.76 170.916 147.724 169.811C148.696 168.706 149.869 167.802 150.765 166.63C151.527 165.659 151.737 164.487 151.804 163.106C151.804 158.402 150.145 151.84 148.479 146.509C146.611 148.861 142.531 149.48 139.969 149.137C139.901 149.204 141.216 157.917 141.216 158.746H141.224Z" fill="#F9C741"/>
    <path d="M113.339 148.861C113.339 153.631 113.481 156.812 112.233 161.516C111.262 165.182 108.707 164.763 105.449 166.01C103.925 166.563 100.816 166.772 100.607 168.362C100.189 171.819 100.54 172.237 105.449 172.371C108.976 172.439 112.577 172.648 116.104 172.439C118.592 172.297 121.431 172.297 123.785 171.61C125.795 165.458 121.708 158.268 122.955 147.897C118.039 150.458 113.339 148.868 113.339 148.868V148.861Z" fill="#F9C741"/>
    <path d="M100.54 170.565C100.682 172.088 101.855 172.364 105.456 172.431C108.983 172.498 112.585 172.707 116.111 172.498C118.599 172.356 121.439 172.357 123.792 171.67V170.221C114.109 171.259 104.485 170.774 100.54 170.565Z" fill="#EDA700"/>
    <path d="M151.744 163.173C151.677 163.031 151.602 162.964 151.535 162.83C151.049 164.144 149.667 165.391 148.838 166.496C147.104 168.78 145.102 171.685 142.053 171.961C140.738 172.103 134.858 172.304 133.819 170.512C133.887 170.789 133.961 171.132 134.163 171.408C135.964 174.171 141.911 173.895 144.609 172.999C146.133 172.513 146.686 170.923 147.65 169.818C148.613 168.713 149.794 167.81 150.691 166.637C151.453 165.741 152.424 164.353 151.729 163.181L151.744 163.173Z" fill="#EDA700"/>
    <path d="M113.205 154.042V154.184C113.623 154.251 118.256 156.67 123.239 153.079C123.381 152.87 123.381 152.594 123.381 152.25C123.314 150.66 123.314 148.241 123.314 145.68C121.17 145.613 115.222 145.337 112.106 143.813C112.45 147.337 112.801 151.832 113.212 154.049L113.205 154.042Z" fill="#CCCFD4"/>
    <path d="M147.523 140.7C144.616 142.91 139.431 143.739 137.279 144.022C138.108 146.509 138.87 148.935 139.7 151.421C139.767 151.63 139.909 151.907 139.976 152.183C143.368 152.668 147.866 149.973 149.458 148.726C148.972 145.964 147.933 143.403 147.523 140.707V140.7Z" fill="#00856D"/>
    <path d="M118.876 30.8356C119.496 31.8062 120.325 32.635 121.364 33.3218C125.862 35.9499 128.492 30.2085 128.215 26.7516C127.939 23.4292 126.348 18.942 122.335 20.047C120.4 20.5995 119.085 22.1898 118.323 23.9892C117.493 26.2738 117.628 28.8272 118.876 30.8356Z" fill="#F0BB95"/>
    <path d="M128.492 28.9691C129.944 28.9691 131.122 27.7924 131.122 26.341C131.122 24.8895 129.944 23.7129 128.492 23.7129C127.039 23.7129 125.862 24.8895 125.862 26.341C125.862 27.7924 127.039 28.9691 128.492 28.9691Z" fill="#F0BB95"/>
    <path d="M124.48 28.2747C125.032 28.3419 125.585 28.4838 126.138 28.3419C126.9 28.1329 127.453 27.446 127.663 26.6098C127.872 25.8482 127.805 25.0195 127.73 24.2579C128.006 24.1161 128.283 24.467 128.425 24.7432C129.187 26.5426 128.843 28.6182 128.567 30.5519C128.425 31.5225 128.223 32.4184 127.872 33.3144C127.11 34.9719 125.451 36.1515 123.583 36.0097C122.133 35.9425 120.818 34.9047 119.914 33.8669C119.219 33.0381 117.904 31.306 118.876 30.2682C120.191 28.7451 122.477 27.9836 124.48 28.2598V28.2747Z" fill="#854C20"/>
    <path d="M125.451 21.2939C125.869 18.942 121.648 17.4189 121.648 17.8371C121.648 18.4567 118.398 20.7414 119.018 22.7498C119.16 23.1679 119.713 23.8548 121.028 23.6457C123.867 23.1604 125.458 21.2939 125.458 21.2939H125.451Z" fill="#AA7242"/>
    <path d="M121.162 36.2934C121.162 36.2934 117.703 39.4068 119.638 46.4548L122.754 43.4161L121.162 36.2934Z" fill="#00856D"/>
    <path d="M129.672 53.5775L138.668 54.8916L137.839 63.7389C137.697 64.7767 136.868 65.6055 135.762 65.6055H131.055C129.882 65.6055 128.91 64.5677 128.978 63.3955L129.672 53.5775Z" fill="#00856D"/>
    <path class="mower" d="M107.93 169.601H85.0287C82.7423 169.601 80.8744 167.735 80.8744 165.45V154.662H112.084V165.45C112.084 167.802 110.216 169.601 107.93 169.601Z" fill="#535456"/>
    <path class="mower" d="M79.8507 136.205H68.2247V153.422H79.8507V136.205Z" fill="#535456"/>
    <path class="mower" d="M89.4669 169.601H66.5659C64.2796 169.601 62.4116 167.735 62.4116 165.45V154.662H93.6212V165.45C93.6212 167.802 91.7533 169.601 89.4669 169.601Z" fill="#B70000"/>
    <path d="M102.55 173.618C106.755 173.618 110.164 170.212 110.164 166.01C110.164 161.808 106.755 158.402 102.55 158.402C98.345 158.402 94.9362 161.808 94.9362 166.01C94.9362 170.212 98.345 173.618 102.55 173.618Z" fill="black"/>
    <path d="M102.55 170.714C105.15 170.714 107.257 168.608 107.257 166.01C107.257 163.413 105.15 161.307 102.55 161.307C99.9502 161.307 97.8427 163.413 97.8427 166.01C97.8427 168.608 99.9502 170.714 102.55 170.714Z" fill="#CCCFD4"/>
    <path d="M53.5576 173.618C57.7625 173.618 61.1713 170.212 61.1713 166.01C61.1713 161.808 57.7625 158.402 53.5576 158.402C49.3527 158.402 45.9439 161.808 45.9439 166.01C45.9439 170.212 49.3527 173.618 53.5576 173.618Z" fill="black"/>
    <path d="M53.5576 170.714C56.1573 170.714 58.2648 168.608 58.2648 166.01C58.2648 163.413 56.1573 161.307 53.5576 161.307C50.9579 161.307 48.8504 163.413 48.8504 166.01C48.8504 168.608 50.9579 170.714 53.5576 170.714Z" fill="#CCCFD4"/>
    <path class="mower" d="M111.89 159.44C111.89 157.917 110.642 156.678 109.125 156.678H57.4354C57.4354 154.117 59.5126 152.049 62.0679 152.049H108.983C112.786 152.049 115.902 155.162 115.902 158.962V161.658C115.835 163.867 114.101 165.667 111.89 165.667V159.44Z" fill="#D42B1E"/>
    <path class="mower" d="M87.8082 152.041H79.6415V137.452H91.4693V144.433L87.8082 152.041Z" fill="#535456"/>
    <path class="mower" d="M90.4457 140.708C90.8417 141.103 90.7819 141.812 90.3112 142.283L83.7136 148.875C83.2429 149.346 82.5331 149.406 82.1371 149.01C81.7411 148.614 81.8009 147.905 82.2716 147.434L88.8692 140.842C89.3399 140.372 90.0497 140.312 90.4457 140.708Z" fill="#BABEC5"/>
    <path class="mower" d="M84.6327 150.324L91.7981 143.477V147.83C91.7981 149.286 90.6026 150.458 89.1456 150.421L84.6327 150.324Z" fill="#BABEC5"/>
    <path class="mower" d="M81.248 140.08H85.5965C86.6874 140.08 86.6874 140.864 85.9626 141.648L82.7647 144.665C81.9802 145.449 81.2554 144.963 81.2554 143.881V140.08H81.248Z" fill="#BABEC5"/>
    <path class="mower" d="M88.3536 130.509L77.5345 132.136L77.2207 130.023C77.0115 128.5 78.05 127.119 79.5743 126.91L85.0959 126.148C86.6202 125.939 87.8455 126.783 88.0547 128.306L88.3536 130.509Z" fill="#535456"/>
    <path d="M99.4566 151.996V147.046C99.4566 139.558 105.531 133.488 113.025 133.488H114.079L130.487 108.782V149.256C130.487 156.737 124.427 162.8 116.941 162.815H116.164C116.164 162.86 117.486 156.655 113.13 153.385C110.672 151.541 105.486 152.325 99.4641 151.996H99.4566Z" fill="#7F8085"/>
    <path class="mower" d="M95.9897 138.072H65.5946C65.5946 135.377 67.612 133.092 70.3467 132.607L91.0957 129.359C93.6884 129.016 95.9972 130.949 95.9972 133.435V138.064L95.9897 138.072Z" fill="#7F8085"/>
    <path class="mower" d="M65.5946 147.128V138.012H79.0662V140.349C79.0662 144.09 76.0327 147.128 72.2818 147.128H65.5946Z" fill="#7F8085"/>
    <path d="M146.006 87.8471L152.409 87.7949L147.112 95.3133L140.26 95.2909L146.006 87.8471Z" fill="#393A3D"/>
    <path d="M141.127 40.116C151.079 40.9448 163.325 63.8211 161.465 73.8929C159.007 87.1976 140.686 82.3297 138.482 82.5163C136.277 82.703 134.335 77.8201 136.726 76.3567C139.117 74.8859 146.633 72.3549 147.552 70.7049C148.471 69.0548 142.606 60.3792 140.402 56.34C138.198 52.3008 138.923 39.9369 141.127 40.1235V40.116Z" fill="#00856D"/>
    <path d="M137.645 77.0884C134.865 76.9316 131.466 78.5518 128.806 82.591C127.147 85.1071 127.169 88.9073 127.057 91.8415C128.507 91.5877 129.926 90.9157 130.816 89.8779C131.563 87.7949 132.377 85.6446 132.377 85.6446C133.109 85.6446 132.377 88.0263 132.004 90.5499C134.088 90.9232 133.961 85.443 134.753 84.8233C135.545 84.2111 138.556 84.4351 140.581 81.6801C142.606 78.9251 140.947 77.2751 137.637 77.0884H137.645Z" fill="#F0BB95"/>
    <path class="right-arm" d="M92.9114 38.2271C92.7844 41.3704 94.5552 47.5598 92.8815 50.2924C90.5877 54.033 89.2652 53.0549 87.8829 48.5379C86.5006 44.0134 90.5204 44.5136 90.5204 44.5136L92.9114 38.2346V38.2271Z" fill="#DCA174"/>
    <path class="right-arm" d="M95.4817 47.0894L89.6462 47.4329C89.3025 47.4329 88.9513 47.2238 88.8841 46.8804L85.3425 34.0386C85.2005 33.5533 85.5517 33.1352 86.0374 33.068L91.8728 32.7246C92.2165 32.7246 92.5677 32.9336 92.6349 33.2771L96.1765 46.1188C96.3185 46.6041 95.9673 47.0894 95.4817 47.0894Z" fill="#393A3D"/>
    <path class="right-arm" d="M88.3869 35.7397C88.6818 35.5578 88.6926 35.0406 88.4108 34.5844C88.1291 34.1282 87.6616 33.9059 87.3666 34.0878C87.0716 34.2697 87.0609 34.7869 87.3426 35.2431C87.6244 35.6993 88.0919 35.9216 88.3869 35.7397Z" fill="white"/>
    <path class="right-arm" d="M85.5891 42.326C85.5891 42.326 84.9614 39.474 84.7298 35.7259C86.4632 35.2257 86.8742 40.6909 87.3823 40.7805C87.3823 40.7805 88.7571 39.3396 91.955 39.1678C91.8653 41.1538 92.6798 43.2668 92.1493 44.327C91.6188 45.3871 88.9962 46.7759 88.8841 47.2985C88.772 47.8211 91.2078 50.5164 90.102 52.4053C90.0497 52.4949 89.9003 52.5024 89.8181 52.4427C84.9465 48.7544 83.7361 49.1874 85.5891 42.326Z" fill="#F0BB95"/>
    <path d="M118.928 16.5379C115.917 18.1357 117.083 24.0489 117.083 24.0489L129.022 23.6905C129.022 23.6905 129.336 18.1656 126.093 16.2542C124.629 15.3956 121.439 15.209 118.928 16.5379Z" fill="#B70000"/>
    <path d="M120.116 15.9854C119.63 16.1273 119.16 16.314 118.704 16.5379C115.558 18.1357 116.365 24.3849 116.365 24.3849L122.813 23.9294C122.739 22.2794 122.881 15.9033 120.116 15.978V15.9854Z" fill="#F0F4F6"/>
    <path d="M116.455 24.034L113.952 26.4306C113.421 26.8562 113.78 27.7073 114.452 27.6326C119.997 24.4371 122.32 27.2444 123.441 26.2365C125.122 24.7283 125.294 23.9668 125.077 23.4217C119.817 21.3312 116.447 24.0265 116.447 24.0265L116.455 24.034Z" fill="#B70000"/>
  </g>
  <g id="left-image">
    <path d="M31.6579 70.1225C49.142 70.1225 63.3157 55.9594 63.3157 38.4884C63.3157 21.0174 49.142 6.85435 31.6579 6.85435C14.1737 6.85435 0 21.0174 0 38.4884C0 55.9594 14.1737 70.1225 31.6579 70.1225Z" fill="#E1EDF0"/>
    <path d="M31.6579 70.1225C49.142 70.1225 63.3157 55.9594 63.3157 38.4884C63.3157 21.0174 49.142 6.85435 31.6579 6.85435C14.1737 6.85435 0 21.0174 0 38.4884C0 55.9594 14.1737 70.1225 31.6579 70.1225Z" fill="#BEE3E7"/>
    <path d="M40.6389 5.80908C48.1929 3.41245 51.742 8.02653 47.8566 14.8058C40.5044 24.1982 48.6785 28.5286 43.1195 40.7133L30.4699 34.5463C30.4699 34.5463 39.6825 6.47357 40.6389 5.80908Z" fill="#381E1B"/>
    <path d="M36.4099 31.3806C39.0026 34.3298 52.1156 46.0068 53.453 48.0003C54.7904 49.9938 55.1192 53.9882 52.3696 54.3092C49.62 54.6302 51.2787 56.5192 47.0796 54.4809C42.873 52.4427 27.4587 39.3694 28.6916 35.7707C29.9244 32.1721 34.2431 28.9168 36.4099 31.3806Z" fill="#F88A42"/>
    <path d="M47.0721 14.2682C47.1543 16.8665 46.4071 19.4273 44.9352 21.5776C43.919 22.9887 43.1569 23.9966 41.7447 24.3102C40.2728 24.6312 38.5618 22.9962 37.5083 21.9957C34.7437 19.3527 34.5793 15.7913 34.7288 11.4684C34.7586 10.4456 34.8857 9.34057 35.4685 8.56409C36.1559 7.65322 37.2766 7.46657 38.2778 7.45164C40.4148 7.41431 42.7758 7.63083 44.5765 8.92247C46.2577 10.132 46.9675 12.118 47.0646 14.2757L47.0721 14.2682Z" fill="#844C20"/>
    <path d="M44.4645 9.69895C44.4645 9.69895 42.1706 16.3961 35.0725 16.859C35.0725 16.859 34.7736 24.9075 30.3578 31.0372C27.4438 35.0839 22.9607 33.8967 21.8474 38.0629C20.6295 37.8463 12.306 24.6238 25.5833 18.2104C25.5833 18.2104 30.2158 15.8735 32.42 10.8338C34.2805 6.58556 37.7772 4.48758 40.893 5.57017C42.8954 6.28692 44.4944 7.82494 44.457 9.69895H44.4645Z" fill="#381E1B"/>
    <path d="M28.5394 69.971C28.5634 63.0678 31.6362 56.4418 34.4046 50.4724C36.7744 45.3624 38.9211 40.7335 38.7411 36.8237C35.984 26.0351 26.0989 26.6174 21.8923 27.0654C15.2648 27.7597 13.7256 31.6048 12.2911 37.8615C11.7596 40.1792 11.9162 42.8893 12.1059 46.1737C12.3597 50.5657 12.6727 55.9845 11.4793 62.8648C16.2058 66.776 22.0888 69.3408 28.5394 69.971Z" fill="#83C441"/>
    <path d="M37.5083 21.9957C36.1334 20.6817 35.4087 19.1436 35.0351 17.3966C32.2855 21.0699 28.5048 26.1991 27.7053 27.7222C27.7053 27.7222 29.5135 32.3363 33.7051 33.4338C35.1023 31.2388 37.5979 26.0722 38.9055 23.8996C39.0026 23.7428 39.0773 23.586 39.1595 23.4292C38.5319 22.9663 37.9566 22.4213 37.5083 21.9882L37.5083 21.9957Z" fill="#844C20"/>
    <path d="M35.0426 17.3966C34.796 17.7251 34.5345 18.076 34.273 18.4269C34.7063 20.7115 35.7449 24.8328 37.6876 26.1245C38.1508 25.2509 38.5767 24.4745 38.9129 23.907C39.0101 23.7502 39.0848 23.5935 39.167 23.4367C38.5394 22.9738 37.964 22.4287 37.5157 21.9957C36.1409 20.6817 35.4162 19.1436 35.0426 17.3966Z" fill="#844C20"/>
    <path d="M35.3564 18.6285C36.648 18.6285 37.695 17.5822 37.695 16.2916C37.695 15.0009 36.648 13.9547 35.3564 13.9547C34.0648 13.9547 33.0177 15.0009 33.0177 16.2916C33.0177 17.5822 34.0648 18.6285 35.3564 18.6285Z" fill="#844C20"/>
    <path d="M6.63493 41.5645C3.21286 51.7707 5.93258 50.0759 7.99479 51.5691C10.3036 53.2565 11.1778 53.6223 16.7592 43.9536C21.9969 34.8599 23.2447 29.656 21.3692 28.0209C17.4167 24.6387 12.0744 30.9103 6.6424 41.5645H6.63493Z" fill="#FFBE6F"/>
    <path d="M23.4314 46.3951C28.7289 46.0292 32.4723 45.1856 34.9529 44.3942C39.1745 43.0428 40.7361 41.5794 40.7958 41.5197L40.5941 41.3106C40.5343 41.3704 34.1609 47.194 13.0233 46.1636L13.0083 46.4548C16.9983 46.6489 20.4577 46.5967 23.424 46.3951H23.4314Z" fill="#D28888"/>
    <path d="M35.7599 47.8958C33.0252 47.9182 30.0589 49.5234 27.4438 50.2401C24.089 51.1659 20.6818 51.7558 17.2971 52.4651C14.017 53.1221 9.95239 53.682 7.15795 51.375C3.68358 48.508 9.60122 46.0964 12.0818 45.6933C18.0891 44.7077 21.7877 45.2677 27.8024 44.8197C31.0302 44.5808 35.7599 43.0502 38.1434 40.8179C39.0026 40.0115 40.2354 39.3918 41.3263 39.8323C41.9166 40.0563 42.35 40.564 42.7684 41.0568C44.3524 42.9159 45.9289 44.7749 47.5129 46.634C47.0348 46.9924 46.3847 46.5892 45.8243 46.3876C44.4271 45.8874 42.9402 46.7087 41.6476 47.4478C40.5194 48.0899 39.1371 48.717 37.8295 48.2616C37.1646 48.0152 36.4622 47.8958 35.7524 47.9032L35.7599 47.8958Z" fill="#844C20"/>
    <path d="M7.08323 52.1813L4.76699 49.5682C4.90148 49.4114 7.70339 43.7595 15.1154 44.7451L15.5114 45.2976C12.0221 46.6041 9.06325 49.0232 7.0907 52.1739L7.08323 52.1813Z" fill="#F1DFC8"/>
    <path d="M67.3056 36.5995H49.6349C49.0671 36.5995 48.5739 36.9877 48.4469 37.5402L44.7932 53.5402H32.3453C32.009 53.5402 31.7401 53.809 31.7401 54.1449V55.2126C31.7401 55.4814 31.9567 55.6979 32.2257 55.6979L62.8002 55.6307C63.3456 55.6307 63.8238 55.2649 63.9658 54.7422C64.7877 51.7334 67.4626 41.9229 68.4787 38.1226C68.6879 37.3536 68.1051 36.5995 67.3056 36.5995Z" fill="#393A3D"/>
    <path d="M68.8224 55.6979H29.6031V59.4534H68.8224V55.6979Z" fill="#AC723D"/>
  </g>
  <g id="money">
    <path d="M84.1918 14.5295L99.6659 20.9504L100.719 13.0214L85.2453 6.6005L84.1918 14.5295Z" fill="white"/>
    <path d="M92.8905 17.171C94.0959 17.0335 94.9069 15.4675 94.702 13.673C94.4971 11.8786 93.3538 10.5354 92.1484 10.6728C90.943 10.8103 90.132 12.3763 90.3369 14.1708C90.5418 15.9652 91.6851 17.3084 92.8905 17.171Z" fill="#53B700"/>
    <path d="M87.98 7.73535C87.98 7.73535 87.5168 10.1245 85.5592 9.32564L85.1333 12.5137C85.1333 12.5137 87.0535 13.7307 86.8069 15.5897L84.1918 14.5071L85.2453 6.6005L87.98 7.73535Z" fill="#83C441"/>
    <path d="M97.9847 11.8865C97.9847 11.8865 97.7979 14.3952 99.748 15.2164L99.3221 18.4045C99.3221 18.4045 97.2973 17.9864 97.0507 19.8454L99.6659 20.928L100.719 13.0214L97.9847 11.8865Z" fill="#83C441"/>
  </g>
</svg>